<svg width="201" height="80" viewBox="0 0 201 80" fill="none" xmlns="http://www.w3.org/2000/svg">
<rect x="0.943359" y="0.75" width="198.5" height="78.5" rx="11.25" stroke="#2E2E2E" stroke-width="1.5"/>
<path d="M88.4134 37.24C88.4134 37.9467 88.2467 38.6133 87.9134 39.24C87.58 39.8667 87.0467 40.38 86.3134 40.78C85.58 41.1667 84.64 41.36 83.4934 41.36H80.9734V47H78.6934V33.1H83.4934C84.56 33.1 85.46 33.2867 86.1934 33.66C86.94 34.02 87.4934 34.5133 87.8534 35.14C88.2267 35.7667 88.4134 36.4667 88.4134 37.24ZM83.4934 39.5C84.36 39.5 85.0067 39.3067 85.4334 38.92C85.86 38.52 86.0734 37.96 86.0734 37.24C86.0734 35.72 85.2134 34.96 83.4934 34.96H80.9734V39.5H83.4934ZM92.8679 32.2V47H90.5879V32.2H92.8679ZM95.1013 41.44C95.1013 40.3333 95.328 39.3533 95.7813 38.5C96.248 37.6467 96.8747 36.9867 97.6613 36.52C98.4613 36.04 99.3413 35.8 100.301 35.8C101.168 35.8 101.921 35.9733 102.561 36.32C103.215 36.6533 103.735 37.0733 104.121 37.58V35.98H106.421V47H104.121V45.36C103.735 45.88 103.208 46.3133 102.541 46.66C101.875 47.0067 101.115 47.18 100.261 47.18C99.3147 47.18 98.448 46.94 97.6613 46.46C96.8747 45.9667 96.248 45.2867 95.7813 44.42C95.328 43.54 95.1013 42.5467 95.1013 41.44ZM104.121 41.48C104.121 40.72 103.961 40.06 103.641 39.5C103.335 38.94 102.928 38.5133 102.421 38.22C101.915 37.9267 101.368 37.78 100.781 37.78C100.195 37.78 99.648 37.9267 99.1413 38.22C98.6347 38.5 98.2213 38.92 97.9013 39.48C97.5947 40.0267 97.4413 40.68 97.4413 41.44C97.4413 42.2 97.5947 42.8667 97.9013 43.44C98.2213 44.0133 98.6347 44.4533 99.1413 44.76C99.6613 45.0533 100.208 45.2 100.781 45.2C101.368 45.2 101.915 45.0533 102.421 44.76C102.928 44.4667 103.335 44.04 103.641 43.48C103.961 42.9067 104.121 42.24 104.121 41.48ZM119.336 35.98L112.576 52.18H110.216L112.456 46.82L108.116 35.98H110.656L113.756 44.38L116.976 35.98H119.336ZM130.832 47.14C129.899 47.14 129.059 46.98 128.312 46.66C127.565 46.3267 126.979 45.86 126.552 45.26C126.125 44.66 125.912 43.96 125.912 43.16H128.352C128.405 43.76 128.639 44.2533 129.052 44.64C129.479 45.0267 130.072 45.22 130.832 45.22C131.619 45.22 132.232 45.0333 132.672 44.66C133.112 44.2733 133.332 43.78 133.332 43.18C133.332 42.7133 133.192 42.3333 132.912 42.04C132.645 41.7467 132.305 41.52 131.892 41.36C131.492 41.2 130.932 41.0267 130.212 40.84C129.305 40.6 128.565 40.36 127.992 40.12C127.432 39.8667 126.952 39.48 126.552 38.96C126.152 38.44 125.952 37.7467 125.952 36.88C125.952 36.08 126.152 35.38 126.552 34.78C126.952 34.18 127.512 33.72 128.232 33.4C128.952 33.08 129.785 32.92 130.732 32.92C132.079 32.92 133.179 33.26 134.032 33.94C134.899 34.6067 135.379 35.5267 135.472 36.7H132.952C132.912 36.1933 132.672 35.76 132.232 35.4C131.792 35.04 131.212 34.86 130.492 34.86C129.839 34.86 129.305 35.0267 128.892 35.36C128.479 35.6933 128.272 36.1733 128.272 36.8C128.272 37.2267 128.399 37.58 128.652 37.86C128.919 38.1267 129.252 38.34 129.652 38.5C130.052 38.66 130.599 38.8333 131.292 39.02C132.212 39.2733 132.959 39.5267 133.532 39.78C134.119 40.0333 134.612 40.4267 135.012 40.96C135.425 41.48 135.632 42.18 135.632 43.06C135.632 43.7667 135.439 44.4333 135.052 45.06C134.679 45.6867 134.125 46.1933 133.392 46.58C132.672 46.9533 131.819 47.14 130.832 47.14ZM140.982 37.84V43.94C140.982 44.3533 141.076 44.6533 141.262 44.84C141.462 45.0133 141.796 45.1 142.262 45.1H143.662V47H141.862C140.836 47 140.049 46.76 139.502 46.28C138.956 45.8 138.682 45.02 138.682 43.94V37.84H137.382V35.98H138.682V33.24H140.982V35.98H143.662V37.84H140.982ZM150.544 47.18C149.504 47.18 148.564 46.9467 147.724 46.48C146.884 46 146.224 45.3333 145.744 44.48C145.264 43.6133 145.024 42.6133 145.024 41.48C145.024 40.36 145.27 39.3667 145.764 38.5C146.257 37.6333 146.93 36.9667 147.784 36.5C148.637 36.0333 149.59 35.8 150.644 35.8C151.697 35.8 152.65 36.0333 153.504 36.5C154.357 36.9667 155.03 37.6333 155.524 38.5C156.017 39.3667 156.264 40.36 156.264 41.48C156.264 42.6 156.01 43.5933 155.504 44.46C154.997 45.3267 154.304 46 153.424 46.48C152.557 46.9467 151.597 47.18 150.544 47.18ZM150.544 45.2C151.13 45.2 151.677 45.06 152.184 44.78C152.704 44.5 153.124 44.08 153.444 43.52C153.764 42.96 153.924 42.28 153.924 41.48C153.924 40.68 153.77 40.0067 153.464 39.46C153.157 38.9 152.75 38.48 152.244 38.2C151.737 37.92 151.19 37.78 150.604 37.78C150.017 37.78 149.47 37.92 148.964 38.2C148.47 38.48 148.077 38.9 147.784 39.46C147.49 40.0067 147.344 40.68 147.344 41.48C147.344 42.6667 147.644 43.5867 148.244 44.24C148.857 44.88 149.624 45.2 150.544 45.2ZM160.798 37.58C161.131 37.02 161.571 36.5867 162.118 36.28C162.678 35.96 163.338 35.8 164.098 35.8V38.16H163.518C162.624 38.16 161.944 38.3867 161.478 38.84C161.024 39.2933 160.798 40.08 160.798 41.2V47H158.518V35.98H160.798V37.58ZM176.293 41.22C176.293 41.6333 176.267 42.0067 176.213 42.34H167.793C167.86 43.22 168.187 43.9267 168.773 44.46C169.36 44.9933 170.08 45.26 170.933 45.26C172.16 45.26 173.027 44.7467 173.533 43.72H175.993C175.66 44.7333 175.053 45.5667 174.173 46.22C173.307 46.86 172.227 47.18 170.933 47.18C169.88 47.18 168.933 46.9467 168.093 46.48C167.267 46 166.613 45.3333 166.133 44.48C165.667 43.6133 165.433 42.6133 165.433 41.48C165.433 40.3467 165.66 39.3533 166.113 38.5C166.58 37.6333 167.227 36.9667 168.053 36.5C168.893 36.0333 169.853 35.8 170.933 35.8C171.973 35.8 172.9 36.0267 173.713 36.48C174.527 36.9333 175.16 37.5733 175.613 38.4C176.067 39.2133 176.293 40.1533 176.293 41.22ZM173.913 40.5C173.9 39.66 173.6 38.9867 173.013 38.48C172.427 37.9733 171.7 37.72 170.833 37.72C170.047 37.72 169.373 37.9733 168.813 38.48C168.253 38.9733 167.92 39.6467 167.813 40.5H173.913Z" fill="#2E2E2E"/>
<path fill-rule="evenodd" clip-rule="evenodd" d="M55.2533 36.4465C57.5802 38.0345 57.5802 41.4662 55.2533 43.0543L29.2546 60.7978C26.5995 62.6099 22.9998 60.7084 22.9998 57.4939V22.0068C22.9998 18.7923 26.5995 16.8909 29.2546 18.7029L55.2533 36.4465Z" fill="#2E2E2E"/>
<path d="M35.0836 53.7025L55.0359 39.4184L47.4484 34.165L35.0836 53.7025Z" fill="#FBF9FF"/>
<path d="M44.9192 32.4139L35.3646 25.7986L41.828 37.093L44.9192 32.4139Z" fill="#FBF9FF"/>
</svg>
