<svg width="209" height="80" viewBox="0 0 209 80" fill="none" xmlns="http://www.w3.org/2000/svg">
<rect x="0.943359" y="0.75" width="206.5" height="78.5" rx="11.25" stroke="#2E2E2E" stroke-width="1.5"/>
<rect x="23.1934" y="19" width="43" height="43" rx="10" fill="#2E2E2E"/>
<path d="M50.885 40.6262C50.8741 38.8229 51.714 37.4639 53.4102 36.4617C52.4615 35.1397 51.0263 34.4125 49.1345 34.2724C47.3432 34.1349 45.3834 35.2877 44.6658 35.2877C43.9074 35.2877 42.1732 34.32 40.8087 34.32C37.9927 34.3623 35 36.504 35 40.8616C35 42.1492 35.2419 43.4792 35.7258 44.8489C36.3727 46.6522 38.7049 51.0705 41.1376 50.9991C42.4097 50.9701 43.3094 50.1213 44.9648 50.1213C46.5712 50.1213 47.403 50.9991 48.8219 50.9991C51.2764 50.9648 53.3857 46.9483 54 45.1398C50.7083 43.63 50.885 40.7188 50.885 40.6262V40.6262ZM48.0282 32.5616C49.4063 30.9699 49.2813 29.5209 49.2405 29C48.0227 29.0687 46.6147 29.8065 45.8129 30.7134C44.9295 31.6864 44.4103 32.8895 44.5217 34.2459C45.8373 34.3438 47.0388 33.6854 48.0282 32.5616V32.5616Z" fill="white"/>
<path d="M96.0734 44.16H90.2534L89.2534 47H86.8734L91.8534 33.08H94.4934L99.4734 47H97.0734L96.0734 44.16ZM95.4334 42.3L93.1734 35.84L90.8934 42.3H95.4334ZM103.919 37.6C104.305 37.0933 104.832 36.6667 105.499 36.32C106.165 35.9733 106.919 35.8 107.759 35.8C108.719 35.8 109.592 36.04 110.379 36.52C111.179 36.9867 111.805 37.6467 112.259 38.5C112.712 39.3533 112.939 40.3333 112.939 41.44C112.939 42.5467 112.712 43.54 112.259 44.42C111.805 45.2867 111.179 45.9667 110.379 46.46C109.592 46.94 108.719 47.18 107.759 47.18C106.919 47.18 106.172 47.0133 105.519 46.68C104.865 46.3333 104.332 45.9067 103.919 45.4V52.24H101.639V35.98H103.919V37.6ZM110.619 41.44C110.619 40.68 110.459 40.0267 110.139 39.48C109.832 38.92 109.419 38.5 108.899 38.22C108.392 37.9267 107.845 37.78 107.259 37.78C106.685 37.78 106.139 37.9267 105.619 38.22C105.112 38.5133 104.699 38.94 104.379 39.5C104.072 40.06 103.919 40.72 103.919 41.48C103.919 42.24 104.072 42.9067 104.379 43.48C104.699 44.04 105.112 44.4667 105.619 44.76C106.139 45.0533 106.685 45.2 107.259 45.2C107.845 45.2 108.392 45.0533 108.899 44.76C109.419 44.4533 109.832 44.0133 110.139 43.44C110.459 42.8667 110.619 42.2 110.619 41.44ZM117.473 37.6C117.86 37.0933 118.387 36.6667 119.053 36.32C119.72 35.9733 120.473 35.8 121.313 35.8C122.273 35.8 123.147 36.04 123.933 36.52C124.733 36.9867 125.36 37.6467 125.813 38.5C126.267 39.3533 126.493 40.3333 126.493 41.44C126.493 42.5467 126.267 43.54 125.813 44.42C125.36 45.2867 124.733 45.9667 123.933 46.46C123.147 46.94 122.273 47.18 121.313 47.18C120.473 47.18 119.727 47.0133 119.073 46.68C118.42 46.3333 117.887 45.9067 117.473 45.4V52.24H115.193V35.98H117.473V37.6ZM124.173 41.44C124.173 40.68 124.013 40.0267 123.693 39.48C123.387 38.92 122.973 38.5 122.453 38.22C121.947 37.9267 121.4 37.78 120.813 37.78C120.24 37.78 119.693 37.9267 119.173 38.22C118.667 38.5133 118.253 38.94 117.933 39.5C117.627 40.06 117.473 40.72 117.473 41.48C117.473 42.24 117.627 42.9067 117.933 43.48C118.253 44.04 118.667 44.4667 119.173 44.76C119.693 45.0533 120.24 45.2 120.813 45.2C121.4 45.2 121.947 45.0533 122.453 44.76C122.973 44.4533 123.387 44.0133 123.693 43.44C124.013 42.8667 124.173 42.2 124.173 41.44ZM138.523 47.14C137.59 47.14 136.75 46.98 136.003 46.66C135.257 46.3267 134.67 45.86 134.243 45.26C133.817 44.66 133.603 43.96 133.603 43.16H136.043C136.097 43.76 136.33 44.2533 136.743 44.64C137.17 45.0267 137.763 45.22 138.523 45.22C139.31 45.22 139.923 45.0333 140.363 44.66C140.803 44.2733 141.023 43.78 141.023 43.18C141.023 42.7133 140.883 42.3333 140.603 42.04C140.337 41.7467 139.997 41.52 139.583 41.36C139.183 41.2 138.623 41.0267 137.903 40.84C136.997 40.6 136.257 40.36 135.683 40.12C135.123 39.8667 134.643 39.48 134.243 38.96C133.843 38.44 133.643 37.7467 133.643 36.88C133.643 36.08 133.843 35.38 134.243 34.78C134.643 34.18 135.203 33.72 135.923 33.4C136.643 33.08 137.477 32.92 138.423 32.92C139.77 32.92 140.87 33.26 141.723 33.94C142.59 34.6067 143.07 35.5267 143.163 36.7H140.643C140.603 36.1933 140.363 35.76 139.923 35.4C139.483 35.04 138.903 34.86 138.183 34.86C137.53 34.86 136.997 35.0267 136.583 35.36C136.17 35.6933 135.963 36.1733 135.963 36.8C135.963 37.2267 136.09 37.58 136.343 37.86C136.61 38.1267 136.943 38.34 137.343 38.5C137.743 38.66 138.29 38.8333 138.983 39.02C139.903 39.2733 140.65 39.5267 141.223 39.78C141.81 40.0333 142.303 40.4267 142.703 40.96C143.117 41.48 143.323 42.18 143.323 43.06C143.323 43.7667 143.13 44.4333 142.743 45.06C142.37 45.6867 141.817 46.1933 141.083 46.58C140.363 46.9533 139.51 47.14 138.523 47.14ZM148.674 37.84V43.94C148.674 44.3533 148.767 44.6533 148.954 44.84C149.154 45.0133 149.487 45.1 149.954 45.1H151.354V47H149.554C148.527 47 147.74 46.76 147.194 46.28C146.647 45.8 146.374 45.02 146.374 43.94V37.84H145.074V35.98H146.374V33.24H148.674V35.98H151.354V37.84H148.674ZM158.235 47.18C157.195 47.18 156.255 46.9467 155.415 46.48C154.575 46 153.915 45.3333 153.435 44.48C152.955 43.6133 152.715 42.6133 152.715 41.48C152.715 40.36 152.962 39.3667 153.455 38.5C153.948 37.6333 154.622 36.9667 155.475 36.5C156.328 36.0333 157.282 35.8 158.335 35.8C159.388 35.8 160.342 36.0333 161.195 36.5C162.048 36.9667 162.722 37.6333 163.215 38.5C163.708 39.3667 163.955 40.36 163.955 41.48C163.955 42.6 163.702 43.5933 163.195 44.46C162.688 45.3267 161.995 46 161.115 46.48C160.248 46.9467 159.288 47.18 158.235 47.18ZM158.235 45.2C158.822 45.2 159.368 45.06 159.875 44.78C160.395 44.5 160.815 44.08 161.135 43.52C161.455 42.96 161.615 42.28 161.615 41.48C161.615 40.68 161.462 40.0067 161.155 39.46C160.848 38.9 160.442 38.48 159.935 38.2C159.428 37.92 158.882 37.78 158.295 37.78C157.708 37.78 157.162 37.92 156.655 38.2C156.162 38.48 155.768 38.9 155.475 39.46C155.182 40.0067 155.035 40.68 155.035 41.48C155.035 42.6667 155.335 43.5867 155.935 44.24C156.548 44.88 157.315 45.2 158.235 45.2ZM168.489 37.58C168.822 37.02 169.262 36.5867 169.809 36.28C170.369 35.96 171.029 35.8 171.789 35.8V38.16H171.209C170.316 38.16 169.636 38.3867 169.169 38.84C168.716 39.2933 168.489 40.08 168.489 41.2V47H166.209V35.98H168.489V37.58ZM183.985 41.22C183.985 41.6333 183.958 42.0067 183.905 42.34H175.485C175.551 43.22 175.878 43.9267 176.465 44.46C177.051 44.9933 177.771 45.26 178.625 45.26C179.851 45.26 180.718 44.7467 181.225 43.72H183.685C183.351 44.7333 182.745 45.5667 181.865 46.22C180.998 46.86 179.918 47.18 178.625 47.18C177.571 47.18 176.625 46.9467 175.785 46.48C174.958 46 174.305 45.3333 173.825 44.48C173.358 43.6133 173.125 42.6133 173.125 41.48C173.125 40.3467 173.351 39.3533 173.805 38.5C174.271 37.6333 174.918 36.9667 175.745 36.5C176.585 36.0333 177.545 35.8 178.625 35.8C179.665 35.8 180.591 36.0267 181.405 36.48C182.218 36.9333 182.851 37.5733 183.305 38.4C183.758 39.2133 183.985 40.1533 183.985 41.22ZM181.605 40.5C181.591 39.66 181.291 38.9867 180.705 38.48C180.118 37.9733 179.391 37.72 178.525 37.72C177.738 37.72 177.065 37.9733 176.505 38.48C175.945 38.9733 175.611 39.6467 175.505 40.5H181.605Z" fill="#2E2E2E"/>
</svg>
